{"glyphs":{":":{"x_min":0,"x_max":313,"ha":313,"o":"m 157 -12 q 127 -12 105 7 q 83 27 83 62 q 83 92 104 113 q 125 135 156 135 q 187 135 208 114 q 230 92 230 62 q 230 27 208 8 q 187 -12 157 -12 z m 83 457 q 83 492 105 511 q 126 530 157 530 q 187 530 208 510 q 230 491 230 457 q 230 430 207 407 q 183 384 156 384 q 126 384 104 406 q 83 428 83 457 z"},"$":{"x_min":0,"x_max":594,"ha":594,"o":"m 327 778 l 327 725 q 379 720 417 704 q 454 688 482 655 q 504 630 516 604 q 528 577 528 555 q 528 531 510 513 q 492 495 467 495 q 419 495 405 547 q 389 608 327 628 l 327 425 q 388 408 424 395 q 459 381 488 355 q 518 328 534 291 q 551 253 551 209 q 551 153 525 105 q 499 56 448 25 q 397 -5 327 -11 l 327 -133 q 327 -162 322 -175 q 316 -188 297 -188 q 279 -188 272 -177 q 265 -167 265 -144 l 265 -12 q 208 -6 165 15 q 123 35 94 66 q 65 96 52 129 q 38 162 38 194 q 38 217 56 236 q 75 255 102 255 q 124 255 139 245 q 154 234 160 216 q 173 176 183 155 q 193 133 213 116 q 232 98 265 89 l 265 316 q 200 334 156 356 q 112 378 84 419 q 57 460 57 525 q 57 609 111 663 q 164 716 265 725 l 265 777 q 265 818 296 818 q 327 818 327 778 z m 265 443 l 265 630 q 224 618 201 598 q 178 578 178 537 q 178 499 200 479 q 221 459 265 443 z m 327 298 l 327 84 q 376 94 403 124 q 430 153 430 193 q 430 235 404 259 q 378 282 327 298 z"},"?":{"x_min":0,"x_max":573,"ha":573,"o":"m 44 524 q 44 570 74 618 q 104 666 161 697 q 218 728 294 728 q 365 728 419 702 q 473 676 503 631 q 532 586 532 533 q 532 492 515 460 q 499 429 475 406 q 452 384 392 330 q 375 315 365 303 q 355 292 351 282 q 346 273 343 263 q 340 254 335 230 q 326 179 277 179 q 251 179 234 196 q 217 212 217 245 q 217 286 229 316 q 242 346 263 369 q 284 392 320 423 q 351 450 365 464 q 379 478 388 495 q 398 512 398 532 q 398 571 369 598 q 340 625 294 625 q 240 625 215 598 q 189 571 172 518 q 155 463 109 463 q 82 463 63 482 q 44 501 44 524 z m 282 -11 q 252 -11 230 8 q 208 27 208 62 q 208 93 229 114 q 251 135 282 135 q 313 135 334 114 q 355 93 355 62 q 355 28 333 8 q 311 -11 282 -11 z"},"<":{"x_min":0,"x_max":583,"ha":583,"o":"m 537 220 l 537 82 l 46 295 l 46 413 l 537 626 l 537 487 l 195 355 z"},"'":{"x_min":0,"x_max":240,"ha":240,"o":"m 172 461 l 71 461 l 45 595 l 45 716 l 195 716 l 195 595 z"},"=":{"x_min":0,"x_max":583,"ha":583,"o":"m 542 181 l 41 181 l 41 309 l 542 309 z m 542 398 l 41 398 l 41 526 l 542 526 z"},"a":{"x_min":0,"x_max":594,"ha":594,"o":"m 406 63 q 357 25 312 7 q 267 -12 211 -12 q 160 -12 121 8 q 82 28 61 63 q 40 98 40 138 q 40 193 75 231 q 109 270 170 283 q 183 286 233 296 q 283 307 319 315 q 355 324 397 336 q 395 389 376 413 q 357 438 298 438 q 247 438 221 424 q 196 410 177 381 q 159 353 152 344 q 144 335 119 335 q 97 335 80 349 q 64 364 64 386 q 64 421 89 455 q 114 488 167 509 q 219 531 298 531 q 386 531 436 510 q 486 489 507 444 q 528 399 528 325 q 528 278 528 246 q 527 213 527 173 q 527 135 539 94 q 552 54 552 42 q 552 21 532 5 q 513 -12 489 -12 q 468 -12 448 7 q 428 26 406 63 z m 397 256 q 368 245 312 233 q 256 221 234 216 q 213 210 193 194 q 174 177 174 148 q 174 118 197 96 q 220 75 257 75 q 296 75 330 93 q 363 110 379 137 q 397 167 397 237 z"},"L":{"x_min":0,"x_max":604,"ha":604,"o":"m 220 640 l 220 119 l 514 119 q 549 119 568 102 q 587 85 587 59 q 587 33 568 16 q 550 0 514 0 l 164 0 q 117 0 96 21 q 75 42 75 89 l 75 640 q 75 684 95 706 q 115 728 147 728 q 180 728 200 706 q 220 685 220 640 z"},"3":{"x_min":0,"x_max":594,"ha":594,"o":"m 274 432 q 319 432 351 458 q 384 485 384 534 q 384 572 358 599 q 332 626 288 626 q 258 626 239 618 q 220 609 208 596 q 197 582 187 561 q 177 539 169 520 q 164 510 151 504 q 139 498 122 498 q 103 498 86 514 q 70 530 70 556 q 70 582 85 610 q 101 638 130 663 q 160 688 204 704 q 248 719 302 719 q 349 719 388 706 q 427 693 456 669 q 485 645 500 612 q 514 580 514 543 q 514 494 493 459 q 472 424 432 391 q 470 371 496 344 q 522 318 536 286 q 549 254 549 217 q 549 172 531 131 q 513 89 479 57 q 444 24 396 6 q 349 -12 291 -12 q 232 -12 186 9 q 140 30 110 61 q 80 93 64 126 q 49 160 49 182 q 49 210 67 228 q 85 245 113 245 q 126 245 139 237 q 152 229 156 218 q 181 150 210 117 q 239 84 292 84 q 322 84 350 99 q 378 114 397 143 q 415 172 415 211 q 415 268 384 301 q 353 333 297 333 q 287 333 267 331 q 246 329 240 329 q 213 329 199 343 q 184 356 184 380 q 184 403 202 418 q 219 432 254 432 z"},";":{"x_min":0,"x_max":313,"ha":313,"o":"m 150 -13 q 118 -13 94 7 q 71 26 71 62 q 71 93 94 114 q 117 135 148 135 q 171 135 190 122 q 209 109 220 85 q 231 60 231 24 q 231 -24 210 -67 q 190 -109 160 -134 q 131 -158 107 -158 q 92 -158 83 -148 q 73 -138 73 -125 q 73 -105 93 -93 q 150 -62 150 -13 z m 83 457 q 83 492 105 511 q 126 530 157 530 q 187 530 208 510 q 230 491 230 457 q 230 429 207 406 q 185 384 157 384 q 137 384 120 394 q 103 403 93 420 q 83 436 83 457 z"},"J":{"x_min":0,"x_max":573,"ha":573,"o":"m 494 640 l 494 265 q 494 216 490 182 q 486 148 471 113 q 447 54 391 21 q 334 -12 254 -12 q 181 -12 133 11 q 84 34 54 85 q 39 112 29 148 q 19 184 19 216 q 19 250 38 268 q 57 286 87 286 q 116 286 130 270 q 145 253 153 218 q 161 180 169 158 q 178 135 197 119 q 217 103 253 103 q 349 103 349 244 l 349 640 q 349 684 368 706 q 388 728 421 728 q 455 728 474 706 q 494 684 494 640 z"},"V":{"x_min":0,"x_max":688,"ha":688,"o":"m 184 633 l 346 153 l 509 636 q 521 674 528 689 q 534 704 549 716 q 563 728 589 728 q 607 728 623 719 q 639 709 648 694 q 657 679 657 663 q 657 652 654 640 q 651 627 647 615 q 643 604 638 591 l 465 123 q 456 96 446 72 q 437 48 425 30 q 413 11 392 0 q 372 -12 343 -12 q 313 -12 293 -1 q 273 11 260 30 q 248 48 239 72 q 229 96 220 123 l 50 587 q 45 600 41 612 q 36 624 33 638 q 30 652 30 662 q 30 687 50 708 q 70 728 100 728 q 137 728 153 705 q 168 683 184 633 z"},"\"":{"x_min":0,"x_max":479,"ha":479,"o":"m 182 461 l 81 461 l 55 595 l 55 716 l 205 716 l 205 595 z m 402 461 l 301 461 l 275 595 l 275 716 l 425 716 l 425 595 z"},"7":{"x_min":0,"x_max":594,"ha":594,"o":"m 156 709 l 481 709 q 528 709 549 694 q 570 680 570 646 q 570 625 545 592 q 521 558 489 517 q 458 477 424 416 q 391 355 363 268 q 351 229 346 204 q 341 179 335 138 q 330 98 325 76 q 315 26 296 7 q 277 -12 246 -12 q 216 -12 198 9 q 180 29 180 70 q 180 101 193 155 q 207 208 236 283 q 266 358 311 437 q 355 516 417 594 l 156 594 q 115 594 94 609 q 74 624 74 656 q 74 689 96 699 q 117 709 156 709 z"},"S":{"x_min":0,"x_max":667,"ha":667,"o":"m 622 215 q 622 150 589 98 q 555 46 491 17 q 426 -12 338 -12 q 232 -12 163 28 q 114 57 84 105 q 53 153 53 198 q 53 225 72 243 q 90 262 118 262 q 141 262 157 248 q 173 233 184 204 q 198 170 214 147 q 229 124 258 109 q 287 94 334 94 q 398 94 439 124 q 479 154 479 199 q 479 235 457 257 q 436 279 401 291 q 367 303 309 316 q 232 334 180 358 q 128 382 97 424 q 67 466 67 528 q 67 587 99 633 q 131 679 192 703 q 253 728 336 728 q 402 728 450 712 q 498 695 530 668 q 562 641 576 611 q 591 582 591 553 q 591 527 573 507 q 554 486 527 486 q 502 486 489 498 q 476 511 461 539 q 441 580 414 602 q 387 625 326 625 q 270 625 236 600 q 201 576 201 541 q 201 520 213 504 q 225 488 245 477 q 266 466 287 459 q 308 453 356 441 q 417 427 466 410 q 515 393 549 368 q 583 344 603 306 q 622 269 622 215 z"},"}":{"x_min":0,"x_max":385,"ha":385,"o":"m 213 259 q 187 275 170 293 q 153 312 143 337 q 132 363 127 399 q 123 434 123 482 q 123 528 121 553 q 119 578 113 589 q 107 600 97 604 q 86 608 65 611 q 47 613 34 628 q 22 644 22 670 q 22 728 93 728 q 138 728 173 710 q 207 691 227 657 q 247 624 247 580 q 250 418 254 402 q 262 370 277 353 q 292 336 313 323 q 335 310 345 297 q 356 285 356 259 q 356 222 328 205 q 294 184 279 168 q 263 152 257 129 q 251 105 250 58 q 249 10 247 -61 q 246 -128 204 -169 q 162 -210 93 -210 q 59 -210 40 -195 q 22 -180 22 -151 q 22 -135 28 -121 q 34 -108 43 -101 q 53 -93 65 -92 q 87 -89 98 -84 q 108 -80 114 -68 q 120 -56 121 -32 q 123 -8 123 37 q 124 104 131 143 q 138 181 157 208 q 176 235 213 259 z"},"Z":{"x_min":0,"x_max":646,"ha":646,"o":"m 59 167 l 427 607 l 111 607 q 78 607 61 622 q 44 636 44 660 q 44 685 61 700 q 78 716 111 716 l 518 716 q 597 716 597 642 q 597 607 584 586 q 571 565 531 518 l 187 109 l 566 109 q 600 109 616 95 q 633 81 633 56 q 633 30 616 15 q 600 0 566 0 l 101 0 q 54 0 30 21 q 6 42 6 78 q 6 90 10 101 q 14 111 20 120 q 27 129 39 143 q 50 157 59 167 z"},"x":{"x_min":0,"x_max":521,"ha":521,"o":"m 358 43 l 261 185 l 162 43 q 141 13 126 0 q 111 -12 88 -12 q 62 -12 45 4 q 27 20 27 40 q 27 61 54 100 l 175 273 l 68 417 q 40 453 40 479 q 40 500 57 515 q 73 530 100 530 q 124 530 139 517 q 154 503 175 475 l 261 357 l 345 475 q 366 504 382 517 q 397 530 420 530 q 446 530 464 515 q 481 500 481 479 q 481 464 474 450 q 467 436 452 417 l 345 273 l 466 100 q 494 60 494 39 q 494 18 477 3 q 459 -12 433 -12 q 410 -12 394 1 q 378 14 358 43 z"},")":{"x_min":0,"x_max":354,"ha":354,"o":"m 292 259 q 292 151 263 59 q 235 -33 177 -129 q 144 -183 125 -196 q 106 -210 73 -210 q 49 -210 49 -197 q 49 -192 69 -150 q 90 -107 112 -48 q 134 11 151 91 q 167 171 167 259 q 167 347 150 427 q 134 507 112 566 q 90 625 69 668 q 49 711 49 715 q 49 728 73 728 q 107 728 126 715 q 145 702 177 648 q 206 600 227 554 q 249 507 263 461 q 277 415 285 364 q 292 314 292 259 z"},"&":{"x_min":0,"x_max":760,"ha":760,"o":"m 155 564 q 155 609 178 647 q 202 684 248 706 q 294 728 356 728 q 417 728 462 705 q 507 682 530 645 q 552 608 552 568 q 552 513 516 473 q 479 432 409 390 q 434 361 455 336 q 476 311 495 289 q 515 267 531 251 q 538 265 553 302 q 569 340 582 356 q 596 373 620 373 q 643 373 661 357 q 678 340 678 317 q 678 295 663 256 q 648 217 619 169 q 637 153 677 122 q 716 90 725 78 q 734 67 734 48 q 734 22 716 5 q 697 -12 675 -12 q 652 -12 630 2 q 609 17 539 74 q 507 44 473 25 q 439 6 401 -3 q 362 -12 314 -12 q 253 -12 204 6 q 156 23 124 54 q 91 84 76 121 q 60 158 60 196 q 60 232 72 263 q 83 293 105 318 q 126 343 157 365 q 188 387 229 408 q 192 454 174 490 q 155 526 155 564 z m 293 330 q 243 301 219 272 q 194 244 194 204 q 194 182 203 161 q 212 141 229 123 q 247 105 270 96 q 292 87 318 87 q 343 87 366 95 q 390 103 411 117 q 432 131 454 153 q 411 193 376 232 q 341 271 293 330 z m 343 464 q 393 496 415 517 q 437 539 437 570 q 437 600 415 621 q 393 641 359 641 q 325 641 302 620 q 280 599 280 571 q 280 556 288 539 q 297 522 310 506 q 322 489 343 464 z"},"_":{"x_min":0,"x_max":500,"ha":500,"o":"m -6 -125 l -6 -75 l 506 -75 l 506 -125 z"},"v":{"x_min":0,"x_max":542,"ha":542,"o":"m 163 447 l 271 144 l 387 460 q 401 498 414 514 q 427 530 454 530 q 479 530 497 513 q 515 496 515 473 q 515 464 512 453 q 509 441 505 431 q 500 420 495 407 l 367 90 q 362 76 353 55 q 345 34 334 19 q 324 4 308 -4 q 293 -12 271 -12 q 243 -12 226 1 q 209 14 201 29 q 193 44 174 90 l 47 404 q 42 416 38 427 q 33 439 30 451 q 27 463 27 472 q 27 486 35 499 q 43 513 58 521 q 73 530 90 530 q 123 530 135 511 q 148 492 163 447 z"},"O":{"x_min":0,"x_max":792,"ha":792,"o":"m 393 728 q 504 728 584 683 q 664 638 705 554 q 746 471 746 359 q 746 276 724 208 q 701 140 656 90 q 611 41 546 14 q 480 -12 396 -12 q 312 -12 246 15 q 179 42 135 91 q 90 141 68 210 q 45 279 45 360 q 45 442 69 511 q 92 580 137 628 q 182 677 247 702 q 311 728 393 728 z m 599 360 q 599 438 574 496 q 548 554 501 583 q 454 613 393 613 q 350 613 313 596 q 276 580 249 549 q 223 518 207 469 q 192 420 192 360 q 192 299 207 250 q 223 200 251 168 q 279 135 315 119 q 352 103 395 103 q 451 103 497 131 q 544 159 572 217 q 599 275 599 360 z"},"(":{"x_min":0,"x_max":354,"ha":354,"o":"m 63 259 q 63 333 76 397 q 88 461 114 523 q 140 585 178 648 q 201 686 217 703 q 232 720 246 724 q 260 728 282 728 q 306 728 306 715 q 306 710 284 662 q 261 613 241 560 q 222 507 205 427 q 188 348 188 259 q 188 171 205 92 q 221 14 242 -44 q 264 -102 285 -147 q 306 -193 306 -197 q 306 -210 282 -210 q 260 -210 246 -205 q 232 -201 217 -184 q 202 -167 178 -129 q 140 -64 115 -5 q 89 55 76 120 q 63 184 63 259 z"},"C":{"x_min":0,"x_max":740,"ha":740,"o":"m 688 226 q 688 192 671 152 q 654 112 618 74 q 582 36 526 12 q 470 -12 395 -12 q 338 -12 292 -1 q 246 9 208 32 q 170 55 138 92 q 110 125 90 167 q 70 209 60 256 q 50 304 50 357 q 50 443 75 512 q 100 580 147 629 q 194 677 257 703 q 320 728 391 728 q 478 728 546 693 q 614 659 650 608 q 686 557 686 511 q 686 486 668 467 q 651 448 626 448 q 598 448 584 461 q 570 475 553 507 q 525 560 487 586 q 448 613 392 613 q 303 613 250 545 q 197 477 197 352 q 197 269 220 213 q 244 158 287 130 q 330 103 387 103 q 450 103 493 134 q 536 165 558 225 q 567 253 581 271 q 595 289 625 289 q 651 289 669 271 q 688 253 688 226 z"},"W":{"x_min":0,"x_max":938,"ha":938,"o":"m 585 113 l 469 542 l 352 113 q 338 64 330 43 q 322 21 302 5 q 282 -12 249 -12 q 222 -12 205 -2 q 188 8 177 26 q 166 44 159 70 q 152 95 147 116 l 28 598 q 17 640 17 662 q 17 690 37 709 q 56 728 85 728 q 125 728 138 703 q 152 677 162 629 l 256 211 l 361 602 q 373 647 382 670 q 391 694 412 711 q 433 728 469 728 q 506 728 526 710 q 546 692 554 671 q 562 650 575 602 l 681 211 l 775 629 q 782 662 788 680 q 794 699 809 713 q 824 728 852 728 q 880 728 900 709 q 920 690 920 662 q 920 642 909 598 l 790 116 q 778 67 770 45 q 762 22 742 5 q 723 -12 688 -12 q 655 -12 635 4 q 615 21 607 42 q 599 62 585 113 z"},"A":{"x_min":0,"x_max":719,"ha":719,"o":"m 536 81 l 502 171 l 211 171 l 177 79 q 157 25 143 7 q 128 -12 96 -12 q 69 -12 48 8 q 27 28 27 53 q 27 68 32 83 q 37 99 48 127 l 231 592 q 239 612 250 640 q 261 668 273 687 q 286 705 306 717 q 326 728 356 728 q 386 728 406 717 q 427 705 439 687 q 452 669 460 648 q 469 627 482 593 l 669 131 q 691 78 691 54 q 691 29 670 9 q 649 -12 620 -12 q 603 -12 591 -6 q 579 0 570 10 q 562 21 552 43 q 543 64 536 81 z m 249 280 l 463 280 l 355 575 z"},"f":{"x_min":0,"x_max":333,"ha":333,"o":"m 58 518 l 90 518 l 90 558 q 90 621 106 657 q 122 694 159 711 q 197 728 263 728 q 380 728 380 671 q 380 652 368 639 q 355 626 339 626 q 331 626 312 629 q 293 632 280 632 q 244 632 233 611 q 223 589 223 550 l 223 518 l 256 518 q 332 518 332 472 q 332 439 312 431 q 292 422 256 422 l 223 422 l 223 69 q 223 29 204 9 q 186 -12 156 -12 q 127 -12 109 9 q 90 29 90 69 l 90 422 l 53 422 q 23 422 7 435 q -9 449 -9 470 q -9 518 58 518 z"},"Q":{"x_min":0,"x_max":792,"ha":792,"o":"m 654 89 q 686 67 723 47 q 761 27 773 15 q 785 3 785 -19 q 785 -35 771 -50 q 756 -66 736 -66 q 719 -66 696 -55 q 672 -44 640 -24 q 608 -3 570 24 q 499 -12 396 -12 q 312 -12 246 14 q 180 41 135 91 q 90 141 68 210 q 45 279 45 360 q 45 442 69 511 q 92 580 137 628 q 182 677 247 702 q 311 728 393 728 q 504 728 584 683 q 664 638 705 554 q 746 471 746 359 q 746 188 654 89 z m 540 168 q 570 203 585 250 q 599 297 599 360 q 599 438 574 496 q 548 554 501 583 q 454 613 393 613 q 350 613 313 596 q 276 580 249 549 q 223 518 207 469 q 192 420 192 360 q 192 236 250 170 q 307 103 395 103 q 431 103 469 118 q 446 135 412 152 q 377 169 365 179 q 352 188 352 205 q 352 220 364 231 q 376 242 391 242 q 436 242 540 168 z"},"w":{"x_min":0,"x_max":813,"ha":813,"o":"m 152 447 l 239 149 l 318 426 q 331 469 337 485 q 343 501 360 515 q 376 530 406 530 q 436 530 452 515 q 469 501 476 484 q 483 467 495 426 l 574 149 l 662 447 q 671 479 676 493 q 682 508 694 519 q 707 530 731 530 q 755 530 772 513 q 790 497 790 474 q 790 454 775 412 l 666 93 q 652 52 644 34 q 636 16 619 2 q 603 -12 573 -12 q 543 -12 526 3 q 508 18 500 40 q 492 62 482 97 l 406 357 l 332 97 q 317 43 300 15 q 283 -12 240 -12 q 218 -12 203 -4 q 188 5 177 21 q 167 37 159 58 q 151 80 147 93 l 39 412 q 23 457 23 474 q 23 496 40 513 q 57 530 82 530 q 115 530 127 511 q 139 492 152 447 z"},"-":{"x_min":0,"x_max":333,"ha":333,"o":"m 244 201 l 90 201 q 55 201 36 218 q 18 234 18 260 q 18 286 36 302 q 54 319 90 319 l 244 319 q 280 319 298 302 q 316 286 316 260 q 316 234 298 218 q 281 201 244 201 z"},"E":{"x_min":0,"x_max":667,"ha":667,"o":"m 550 604 l 223 604 l 223 428 l 524 428 q 557 428 573 413 q 590 398 590 374 q 590 350 574 334 q 558 319 524 319 l 223 319 l 223 115 l 561 115 q 595 115 613 99 q 630 83 630 57 q 630 32 613 16 q 595 0 561 0 l 167 0 q 120 0 99 21 q 78 42 78 89 l 78 627 q 78 658 87 678 q 97 698 116 707 q 136 716 167 716 l 550 716 q 584 716 601 700 q 618 685 618 660 q 618 635 601 619 q 584 604 550 604 z"},"s":{"x_min":0,"x_max":542,"ha":542,"o":"m 498 162 q 498 107 471 68 q 444 28 392 8 q 339 -12 264 -12 q 192 -12 141 10 q 90 32 65 65 q 41 98 41 131 q 41 153 57 168 q 72 184 96 184 q 117 184 128 174 q 140 164 150 145 q 170 109 199 92 q 228 74 277 74 q 317 74 343 92 q 368 110 368 133 q 368 168 342 184 q 315 200 254 215 q 185 232 142 251 q 99 270 73 300 q 47 331 47 376 q 47 416 71 452 q 95 487 141 509 q 188 530 254 530 q 306 530 347 519 q 388 508 416 490 q 443 472 458 450 q 472 428 472 407 q 472 384 457 370 q 441 355 413 355 q 393 355 378 367 q 364 378 345 402 q 330 421 310 433 q 289 445 254 445 q 218 445 194 429 q 170 414 170 391 q 170 370 188 357 q 205 343 235 334 q 265 326 317 313 q 379 298 418 277 q 458 256 478 227 q 498 199 498 162 z"},">":{"x_min":0,"x_max":583,"ha":583,"o":"m 537 295 l 46 81 l 46 219 l 389 354 l 46 487 l 46 624 l 537 412 z"},"l":{"x_min":0,"x_max":271,"ha":271,"o":"m 69 69 l 69 647 q 69 687 87 708 q 104 728 135 728 q 165 728 184 708 q 202 688 202 647 l 202 69 q 202 28 183 8 q 165 -12 135 -12 q 105 -12 87 9 q 69 30 69 69 z"},"8":{"x_min":0,"x_max":594,"ha":594,"o":"m 67 534 q 67 583 94 626 q 120 669 172 695 q 223 721 292 721 q 350 721 394 706 q 438 691 467 664 q 497 638 511 604 q 525 571 525 533 q 525 485 500 448 q 476 410 427 386 q 468 370 496 344 q 523 318 537 283 q 551 249 551 207 q 551 146 521 95 q 491 45 434 17 q 376 -11 298 -11 q 217 -11 159 17 q 102 45 72 95 q 43 145 43 206 q 43 337 167 386 q 67 433 67 534 z m 417 211 q 417 249 401 277 q 386 306 357 321 q 329 336 294 336 q 244 336 210 303 q 177 270 177 210 q 177 172 193 143 q 208 114 236 98 q 263 82 297 82 q 331 82 358 98 q 386 114 401 144 q 417 173 417 211 z m 295 628 q 249 628 221 599 q 193 571 193 526 q 193 484 222 457 q 250 429 296 429 q 319 429 338 437 q 356 444 370 457 q 383 470 391 488 q 398 505 398 527 q 398 556 385 579 q 372 602 349 615 q 325 628 295 628 z"},"\\":{"x_min":0,"x_max":281,"ha":281,"o":"m 121 650 l 258 87 q 268 47 268 31 q 268 -12 218 -12 q 197 -12 187 -3 q 176 6 172 19 q 167 32 159 66 l 23 629 q 13 671 13 684 q 13 705 26 716 q 39 728 63 728 q 92 728 101 711 q 110 695 121 650 z"},"e":{"x_min":0,"x_max":594,"ha":594,"o":"m 441 226 l 180 226 q 181 181 198 146 q 216 111 246 94 q 275 76 311 76 q 335 76 355 82 q 375 87 393 99 q 412 111 427 125 q 443 139 468 162 q 478 171 497 171 q 518 171 530 160 q 543 148 543 128 q 543 110 529 86 q 515 62 486 39 q 458 17 414 2 q 371 -12 315 -12 q 187 -12 115 61 q 44 134 44 260 q 44 319 62 369 q 79 420 113 456 q 146 492 196 511 q 245 531 305 531 q 383 531 439 498 q 495 465 523 413 q 551 360 551 306 q 551 256 522 241 q 493 226 441 226 z m 180 302 l 422 302 q 417 370 385 404 q 353 438 301 438 q 251 438 219 404 q 187 369 180 302 z"},"b":{"x_min":0,"x_max":625,"ha":625,"o":"m 192 652 l 192 448 q 229 487 269 508 q 308 529 365 529 q 432 529 482 497 q 532 466 559 406 q 587 346 587 264 q 587 204 572 153 q 556 103 527 65 q 498 28 456 8 q 414 -12 364 -12 q 333 -12 306 -5 q 279 2 260 14 q 241 26 227 39 q 214 52 192 77 l 192 64 q 192 26 174 7 q 156 -12 128 -12 q 100 -12 83 7 q 66 26 66 64 l 66 646 q 66 687 82 707 q 99 728 128 728 q 159 728 175 708 q 192 688 192 652 z m 198 256 q 198 176 235 134 q 271 91 330 91 q 380 91 417 135 q 453 178 453 260 q 453 312 438 351 q 423 389 395 409 q 367 430 330 430 q 292 430 262 409 q 232 389 215 349 q 198 310 198 256 z"},"%":{"x_min":0,"x_max":854,"ha":854,"o":"m 330 532 q 330 439 289 394 q 248 348 177 348 q 133 348 98 367 q 63 387 43 428 q 24 469 24 528 q 24 591 39 634 q 54 676 88 698 q 122 720 175 720 q 213 720 242 708 q 271 697 291 673 q 311 648 320 614 q 330 579 330 532 z m 239 537 q 239 601 225 630 q 211 659 177 659 q 153 659 139 645 q 125 631 120 604 q 115 577 115 535 q 115 492 120 464 q 125 437 139 423 q 153 409 177 409 q 213 409 226 440 q 239 471 239 537 z m 830 179 q 830 86 789 41 q 748 -5 677 -5 q 632 -5 597 15 q 562 34 543 75 q 523 115 523 175 q 523 270 559 318 q 596 366 675 366 q 713 366 741 354 q 770 343 790 319 q 811 296 820 261 q 830 226 830 179 z m 739 184 q 739 247 725 276 q 711 305 677 305 q 652 305 639 292 q 625 278 619 251 q 614 225 614 182 q 614 117 628 86 q 642 56 677 56 q 712 56 726 87 q 739 118 739 184 z m 656 656 l 249 0 q 233 -27 214 -27 q 203 -27 191 -18 q 180 -10 180 4 q 180 14 190 29 l 599 690 q 610 708 618 717 q 626 726 641 726 q 656 726 665 718 q 674 709 674 695 q 674 685 656 656 z"},"m":{"x_min":0,"x_max":885,"ha":885,"o":"m 512 249 l 512 72 q 512 30 493 9 q 474 -12 443 -12 q 413 -12 394 9 q 375 30 375 72 l 375 284 q 375 334 372 362 q 368 390 353 408 q 338 426 305 426 q 240 426 219 381 q 198 336 198 252 l 198 72 q 198 30 179 9 q 161 -12 130 -12 q 100 -12 80 9 q 61 30 61 72 l 61 453 q 61 491 78 510 q 96 530 124 530 q 151 530 170 511 q 188 493 188 461 l 188 448 q 223 490 262 509 q 302 529 350 529 q 400 529 437 509 q 473 489 496 448 q 530 489 568 509 q 607 529 654 529 q 708 529 748 507 q 788 486 807 446 q 824 410 824 332 l 824 72 q 824 30 805 9 q 786 -12 755 -12 q 725 -12 705 9 q 686 30 686 72 l 686 296 q 686 339 682 365 q 679 391 663 408 q 646 426 614 426 q 587 426 564 410 q 540 395 527 368 q 512 334 512 249 z"},"#":{"x_min":0,"x_max":552,"ha":552,"o":"m 57 87 l 75 178 q 8 180 8 232 q 8 256 25 272 q 42 287 74 287 l 97 287 l 125 429 l 74 429 q 42 429 25 445 q 8 461 8 484 q 8 508 25 523 q 42 538 74 538 l 147 538 l 170 650 q 175 678 182 694 q 188 710 200 719 q 211 727 230 727 q 256 727 270 713 q 283 700 283 678 q 283 673 275 629 l 257 538 l 364 538 l 387 650 q 392 675 396 691 q 401 707 412 717 q 424 728 446 728 q 471 728 485 715 q 499 702 499 679 q 499 669 498 659 q 497 649 495 640 q 493 631 492 629 l 474 537 q 544 536 544 483 q 544 458 527 444 q 511 429 478 429 l 453 429 l 424 287 l 478 287 q 511 287 527 271 q 544 256 544 232 q 544 208 528 193 q 511 178 478 178 l 403 178 l 380 66 q 375 39 370 24 q 366 10 354 -1 q 343 -12 321 -12 q 296 -12 282 1 q 268 15 268 37 q 268 57 275 87 l 293 178 l 185 178 l 162 66 q 153 24 144 6 q 134 -12 103 -12 q 78 -12 64 1 q 50 15 50 37 q 50 48 52 62 q 55 76 57 87 z m 343 429 l 235 429 l 206 287 l 315 287 z"},",":{"x_min":0,"x_max":313,"ha":313,"o":"m 159 -13 q 127 -13 104 7 q 80 26 80 62 q 80 93 103 114 q 126 135 157 135 q 181 135 200 122 q 219 109 229 85 q 240 60 240 24 q 240 -24 220 -67 q 199 -109 170 -134 q 140 -158 116 -158 q 101 -158 92 -148 q 82 -138 82 -125 q 82 -105 102 -93 q 159 -61 159 -13 z"},"n":{"x_min":0,"x_max":604,"ha":604,"o":"m 190 456 l 190 440 q 225 486 267 508 q 309 530 363 530 q 416 530 457 507 q 499 484 519 442 q 532 417 536 389 q 540 361 540 317 l 540 69 q 540 29 522 8 q 503 -12 474 -12 q 444 -12 426 9 q 407 30 407 69 l 407 291 q 407 357 389 392 q 371 427 316 427 q 280 427 251 406 q 222 384 208 347 q 198 317 198 236 l 198 69 q 198 28 179 8 q 161 -12 131 -12 q 102 -12 83 9 q 65 30 65 69 l 65 454 q 65 492 82 511 q 98 530 127 530 q 145 530 159 521 q 173 513 181 497 q 190 480 190 456 z"},"h":{"x_min":0,"x_max":604,"ha":604,"o":"m 199 647 l 199 449 q 225 479 249 496 q 273 513 302 521 q 332 530 365 530 q 416 530 455 508 q 495 487 517 446 q 531 422 536 392 q 541 363 541 324 l 541 69 q 541 29 523 8 q 504 -12 474 -12 q 408 -12 408 69 l 408 294 q 408 358 389 392 q 370 427 317 427 q 281 427 253 406 q 224 386 210 351 q 199 321 199 245 l 199 69 q 199 29 181 9 q 164 -12 132 -12 q 66 -12 66 69 l 66 647 q 66 688 83 708 q 101 728 132 728 q 164 728 181 708 q 199 687 199 647 z"},"z":{"x_min":0,"x_max":521,"ha":521,"o":"m 431 377 l 187 104 l 448 104 q 480 104 496 89 q 512 74 512 51 q 512 28 496 14 q 480 0 448 0 l 87 0 q 49 0 30 17 q 11 33 11 62 q 11 79 24 96 q 38 114 79 160 q 123 209 159 249 q 195 288 226 323 q 256 357 277 381 q 297 405 309 422 l 111 422 q 70 422 49 429 q 28 437 28 468 q 28 491 44 504 q 60 518 89 518 l 395 518 q 438 518 460 506 q 483 493 483 461 q 483 450 479 439 q 474 427 469 420 q 463 413 454 402 q 445 392 431 377 z"},"B":{"x_min":0,"x_max":719,"ha":719,"o":"m 384 0 l 165 0 q 118 0 97 21 q 77 42 77 89 l 77 627 q 77 674 98 695 q 119 716 165 716 l 397 716 q 448 716 486 709 q 523 703 553 685 q 579 670 598 647 q 618 624 628 595 q 638 567 638 536 q 638 429 531 379 q 672 334 672 204 q 672 144 641 96 q 610 48 558 25 q 525 11 483 6 q 440 0 384 0 z m 373 318 l 222 318 l 222 109 l 378 109 q 525 109 525 215 q 525 269 487 293 q 449 318 373 318 z m 222 607 l 222 422 l 355 422 q 409 422 439 432 q 468 442 484 471 q 496 492 496 517 q 496 571 458 589 q 419 607 340 607 z"},"K":{"x_min":0,"x_max":740,"ha":740,"o":"m 224 640 l 224 389 l 509 686 q 529 708 544 718 q 558 728 582 728 q 613 728 633 710 q 652 691 652 665 q 652 633 619 602 l 443 435 l 646 144 q 667 114 678 91 q 689 68 689 47 q 689 23 670 5 q 651 -12 619 -12 q 589 -12 570 1 q 551 14 538 35 q 524 57 514 74 l 343 338 l 224 224 l 224 76 q 224 31 204 10 q 183 -12 151 -12 q 132 -12 115 -2 q 98 7 89 24 q 82 38 81 56 q 79 74 79 108 l 79 640 q 79 684 98 706 q 118 728 151 728 q 184 728 204 706 q 224 685 224 640 z"},"R":{"x_min":0,"x_max":719,"ha":719,"o":"m 273 306 l 222 306 l 222 76 q 222 31 202 9 q 182 -12 150 -12 q 115 -12 96 10 q 77 33 77 76 l 77 627 q 77 674 98 695 q 119 716 166 716 l 402 716 q 451 716 485 712 q 520 708 548 695 q 582 681 607 654 q 633 628 647 593 q 660 558 660 519 q 660 439 615 391 q 570 343 478 323 q 517 303 552 263 q 587 223 615 177 q 642 132 657 96 q 673 60 673 46 q 673 32 664 18 q 655 4 639 -4 q 624 -12 603 -12 q 579 -12 562 -1 q 545 11 533 28 q 521 46 501 80 l 443 177 q 412 230 387 258 q 362 286 337 296 q 312 306 273 306 z m 356 607 l 222 607 l 222 410 l 352 410 q 404 410 440 419 q 476 428 494 450 q 513 472 513 510 q 513 540 498 562 q 483 585 456 596 q 431 607 356 607 z"},"T":{"x_min":0,"x_max":625,"ha":625,"o":"m 543 596 l 385 596 l 385 76 q 385 31 365 10 q 345 -12 313 -12 q 281 -12 260 10 q 240 32 240 76 l 240 596 l 82 596 q 45 596 27 613 q 9 629 9 656 q 9 684 28 700 q 46 716 82 716 l 543 716 q 581 716 599 699 q 617 683 617 656 q 617 629 599 613 q 580 596 543 596 z"},"P":{"x_min":0,"x_max":667,"ha":667,"o":"m 356 279 l 223 279 l 223 76 q 223 33 203 10 q 182 -12 151 -12 q 118 -12 98 10 q 78 32 78 75 l 78 627 q 78 675 100 695 q 122 716 170 716 l 356 716 q 438 716 483 703 q 527 691 559 663 q 591 634 607 593 q 624 552 624 501 q 624 392 557 335 q 489 279 356 279 z m 321 607 l 223 607 l 223 388 l 321 388 q 372 388 406 399 q 441 410 459 434 q 477 458 477 498 q 477 545 449 575 q 418 607 321 607 z"},"|":{"x_min":0,"x_max":281,"ha":281,"o":"m 195 661 l 195 -143 q 195 -176 180 -193 q 165 -210 141 -210 q 117 -210 102 -193 q 86 -176 86 -143 l 86 661 q 86 694 102 711 q 117 728 141 728 q 165 728 180 711 q 195 693 195 661 z"},"t":{"x_min":0,"x_max":354,"ha":354,"o":"m 76 518 l 91 518 l 91 598 q 91 630 93 649 q 94 667 102 680 q 110 694 125 702 q 139 711 157 711 q 183 711 203 692 q 217 679 220 661 q 224 643 224 609 l 224 518 l 273 518 q 301 518 316 505 q 331 491 331 470 q 331 443 310 433 q 289 422 249 422 l 224 422 l 224 177 q 224 146 226 129 q 229 112 238 101 q 248 91 269 91 q 281 91 301 95 q 321 99 332 99 q 348 99 361 86 q 374 73 374 54 q 374 22 339 5 q 304 -12 238 -12 q 175 -12 143 9 q 111 30 101 67 q 91 104 91 166 l 91 422 l 73 422 q 44 422 29 436 q 14 449 14 470 q 14 491 30 505 q 46 518 76 518 z"},"M":{"x_min":0,"x_max":833,"ha":833,"o":"m 320 108 l 205 564 l 205 70 q 205 29 187 8 q 168 -12 138 -12 q 109 -12 90 8 q 72 28 72 70 l 72 636 q 72 683 96 699 q 121 716 162 716 l 207 716 q 248 716 266 708 q 284 701 293 682 q 302 663 313 620 l 417 228 l 521 620 q 532 663 541 682 q 550 701 568 708 q 586 716 627 716 l 672 716 q 713 716 738 699 q 762 683 762 636 l 762 70 q 762 29 744 8 q 726 -12 695 -12 q 666 -12 647 8 q 629 29 629 70 l 629 564 l 514 108 q 503 63 496 43 q 489 22 470 5 q 451 -12 417 -12 q 392 -12 374 -1 q 356 10 347 27 q 337 44 331 65 q 326 85 320 108 z"},"g":{"x_min":0,"x_max":625,"ha":625,"o":"m 559 432 l 559 45 q 559 -21 545 -69 q 531 -117 500 -148 q 468 -180 418 -195 q 367 -210 292 -210 q 223 -210 169 -191 q 115 -171 85 -141 q 56 -110 56 -78 q 56 -54 73 -38 q 89 -23 113 -23 q 142 -23 164 -49 q 175 -62 186 -75 q 198 -89 212 -98 q 226 -108 245 -113 q 265 -117 290 -117 q 342 -117 370 -103 q 399 -88 410 -62 q 422 -37 424 -7 q 426 22 427 88 q 396 45 356 22 q 315 0 260 0 q 193 0 143 34 q 93 68 66 130 q 39 191 39 272 q 39 332 55 380 q 72 429 102 462 q 132 495 172 512 q 211 529 259 529 q 315 529 357 507 q 398 485 434 439 l 434 457 q 434 492 451 511 q 468 530 495 530 q 534 530 546 505 q 559 479 559 432 z m 173 263 q 173 182 208 141 q 244 99 300 99 q 333 99 363 117 q 392 135 411 171 q 429 207 429 258 q 429 339 393 385 q 357 430 299 430 q 242 430 207 387 q 173 343 173 263 z"},"j":{"x_min":0,"x_max":271,"ha":271,"o":"m 203 450 l 203 -2 q 203 -50 200 -81 q 197 -111 191 -125 q 158 -210 50 -210 q -11 -210 -42 -193 q -73 -177 -73 -145 q -73 -122 -59 -107 q -45 -92 -22 -92 q -19 -92 -12 -93 q -6 -93 7 -94 q 20 -95 25 -95 q 52 -95 61 -74 q 70 -53 70 1 l 70 450 q 70 490 88 510 q 107 530 137 530 q 167 530 185 510 q 203 490 203 450 z m 137 592 q 109 592 90 609 q 70 626 70 657 q 70 686 90 704 q 110 722 137 722 q 163 722 183 706 q 203 689 203 657 q 203 626 184 609 q 164 592 137 592 z"},"i":{"x_min":0,"x_max":271,"ha":271,"o":"m 202 454 l 202 69 q 202 29 183 8 q 164 -12 135 -12 q 105 -12 87 9 q 69 30 69 69 l 69 450 q 69 490 87 510 q 105 530 135 530 q 164 530 183 510 q 202 490 202 454 z m 136 592 q 108 592 89 609 q 69 626 69 657 q 69 686 89 704 q 109 722 136 722 q 162 722 182 706 q 202 689 202 657 q 202 626 183 609 q 163 592 136 592 z"},"y":{"x_min":0,"x_max":542,"ha":542,"o":"m 192 -29 l 204 1 l 40 414 q 25 450 25 466 q 25 483 34 498 q 42 512 58 521 q 73 530 90 530 q 119 530 133 511 q 148 493 159 459 l 272 131 l 379 436 q 392 473 402 494 q 412 515 424 522 q 435 530 456 530 q 471 530 485 522 q 499 514 507 500 q 514 486 514 471 q 512 462 508 445 q 503 428 497 410 l 323 -45 q 301 -105 279 -139 q 258 -173 222 -192 q 187 -210 127 -210 q 68 -210 39 -197 q 10 -185 10 -151 q 10 -128 24 -115 q 38 -103 65 -103 q 76 -103 86 -106 q 99 -109 108 -109 q 131 -109 144 -102 q 157 -95 168 -78 q 178 -62 192 -29 z"},"@":{"x_min":0,"x_max":979,"ha":979,"o":"m 607 463 l 619 517 l 748 517 l 674 167 q 667 134 667 123 q 667 112 673 105 q 678 99 686 99 q 712 99 754 134 q 796 168 827 227 q 858 287 858 357 q 858 416 836 467 q 813 519 771 557 q 729 595 668 617 q 606 638 528 638 q 448 638 382 617 q 315 597 265 558 q 215 519 181 462 q 151 412 136 352 q 120 291 120 228 q 120 144 154 74 q 187 5 251 -42 q 314 -89 405 -109 q 495 -129 609 -117 q 699 -106 762 -76 q 825 -46 868 9 l 972 9 q 947 -43 906 -84 q 865 -125 811 -154 q 756 -182 688 -196 q 620 -211 540 -211 q 420 -211 324 -179 q 228 -148 162 -89 q 96 -29 62 53 q 29 135 29 235 q 29 339 63 429 q 98 520 163 586 q 229 653 323 690 q 417 728 530 728 q 623 728 700 701 q 777 674 833 623 q 888 572 917 503 q 946 433 946 349 q 946 284 922 221 q 899 158 855 108 q 812 58 752 29 q 693 0 625 0 q 585 0 563 13 q 542 27 534 56 q 492 14 437 3 q 381 -8 330 13 q 278 35 246 85 q 214 135 214 209 q 214 286 247 360 q 280 434 341 481 q 401 529 478 529 q 566 529 607 463 z m 340 210 q 340 151 364 120 q 389 89 428 89 q 474 89 509 125 q 544 162 562 218 q 580 274 580 326 q 580 352 574 373 q 568 394 556 409 q 544 425 527 433 q 510 441 489 441 q 446 441 411 407 q 377 374 358 321 q 340 267 340 210 z"},".":{"x_min":0,"x_max":313,"ha":313,"o":"m 157 -12 q 127 -12 105 7 q 83 27 83 62 q 83 92 104 113 q 125 135 156 135 q 187 135 208 114 q 230 92 230 62 q 230 27 208 8 q 187 -12 157 -12 z"},"p":{"x_min":0,"x_max":625,"ha":625,"o":"m 192 455 l 192 439 q 229 485 270 507 q 311 529 362 529 q 423 529 475 497 q 527 465 557 404 q 587 343 587 260 q 587 198 570 147 q 552 95 522 60 q 492 25 450 7 q 409 -12 362 -12 q 305 -12 266 11 q 227 34 192 78 l 192 -122 q 192 -210 128 -210 q 90 -210 78 -187 q 66 -165 66 -121 l 66 454 q 66 492 83 511 q 99 530 128 530 q 156 530 174 510 q 192 491 192 455 z m 453 261 q 453 314 437 352 q 421 390 392 410 q 364 430 329 430 q 274 430 236 387 q 198 343 198 259 q 198 179 236 135 q 273 91 329 91 q 362 91 391 110 q 419 129 436 168 q 453 207 453 261 z"},"X":{"x_min":0,"x_max":604,"ha":604,"o":"m 52 139 l 212 373 l 77 581 q 58 611 49 633 q 39 655 39 675 q 39 695 57 712 q 76 728 102 728 q 132 728 149 710 q 166 692 196 644 l 303 470 l 418 644 q 432 666 442 682 q 452 697 461 708 q 471 718 482 723 q 494 728 509 728 q 536 728 553 712 q 571 695 571 673 q 571 640 533 584 l 392 373 l 544 139 q 564 108 574 88 q 583 68 583 50 q 583 33 575 19 q 566 4 551 -4 q 536 -12 517 -12 q 497 -12 482 -4 q 468 5 459 18 q 451 30 427 67 l 301 265 l 167 61 q 151 37 145 27 q 138 17 129 8 q 120 -1 107 -7 q 94 -12 77 -12 q 51 -12 33 4 q 16 20 16 51 q 16 87 52 139 z"},"*":{"x_min":0,"x_max":438,"ha":438,"o":"m 246 596 q 278 611 307 625 q 335 640 353 647 q 370 654 380 654 q 397 654 409 642 q 422 631 422 614 q 422 604 416 594 q 410 583 403 580 q 340 555 264 544 q 278 531 298 510 q 318 489 319 488 q 326 478 339 462 q 353 447 358 439 q 363 430 363 418 q 363 402 351 391 q 339 379 321 379 q 302 379 279 408 q 256 437 219 511 q 182 444 169 422 q 157 401 145 390 q 133 379 118 379 q 100 379 88 391 q 76 404 76 418 q 76 431 81 438 q 126 499 175 544 q 134 550 102 558 q 69 566 33 581 q 27 584 22 594 q 16 605 16 614 q 16 631 29 642 q 41 654 57 654 q 69 654 86 647 q 104 640 131 626 q 158 613 193 596 q 187 627 182 667 q 178 707 178 721 q 178 739 190 752 q 201 765 219 765 q 237 765 248 752 q 260 739 260 718 q 260 712 258 695 q 256 677 253 653 q 250 628 246 596 z"},"Y":{"x_min":0,"x_max":625,"ha":625,"o":"m 238 76 l 238 303 l 63 574 q 40 611 31 631 q 21 652 21 667 q 21 692 40 710 q 60 728 88 728 q 118 728 133 711 q 148 694 179 644 l 313 427 l 448 644 q 460 664 469 678 q 477 691 487 703 q 497 715 509 722 q 521 728 539 728 q 566 728 585 710 q 603 692 603 669 q 603 650 594 631 q 584 612 562 578 l 383 303 l 383 76 q 383 32 362 10 q 342 -12 310 -12 q 278 -12 258 10 q 238 31 238 76 z"},"c":{"x_min":0,"x_max":594,"ha":594,"o":"m 547 153 q 547 128 532 100 q 517 71 487 46 q 456 20 410 4 q 363 -11 305 -11 q 182 -11 112 61 q 43 133 43 254 q 43 336 75 399 q 106 462 167 496 q 227 531 310 531 q 362 531 405 516 q 448 500 478 477 q 508 453 524 426 q 540 398 540 375 q 540 351 522 334 q 504 318 479 318 q 462 318 451 326 q 440 335 427 354 q 402 391 376 410 q 349 428 308 428 q 249 428 213 382 q 177 336 177 256 q 177 218 186 187 q 195 155 213 133 q 230 111 255 99 q 280 88 310 88 q 350 88 379 106 q 407 125 429 163 q 441 186 456 198 q 470 211 490 211 q 515 211 531 192 q 547 174 547 153 z"},"!":{"x_min":0,"x_max":333,"ha":333,"o":"m 113 310 l 97 544 q 93 612 93 642 q 93 683 114 705 q 135 728 170 728 q 212 728 226 699 q 240 670 240 615 q 240 583 237 550 l 216 309 q 212 266 201 243 q 190 220 164 220 q 138 220 127 242 q 117 265 113 310 z m 167 -11 q 137 -11 115 8 q 93 27 93 62 q 93 92 114 114 q 135 135 166 135 q 197 135 219 114 q 240 92 240 62 q 240 28 218 8 q 196 -11 167 -11 z"},"/":{"x_min":0,"x_max":281,"ha":281,"o":"m 258 629 l 121 66 q 114 38 109 22 q 104 6 94 -3 q 83 -12 63 -12 q 13 -12 13 31 q 13 42 23 87 l 159 650 q 170 695 180 711 q 189 728 218 728 q 242 728 255 716 q 268 705 268 684 q 268 669 258 629 z"},"[":{"x_min":0,"x_max":354,"ha":354,"o":"m 280 624 l 198 624 l 198 -84 l 280 -84 q 343 -84 343 -136 q 343 -188 280 -188 l 158 -188 q 128 -188 109 -178 q 90 -168 81 -149 q 72 -129 72 -99 l 72 639 q 72 685 92 707 q 113 728 158 728 l 280 728 q 312 728 327 714 q 343 700 343 676 q 343 624 280 624 z"},"6":{"x_min":0,"x_max":594,"ha":594,"o":"m 181 387 q 214 427 253 446 q 292 465 341 465 q 387 465 427 448 q 466 430 495 398 q 525 366 541 323 q 557 279 557 232 q 557 163 526 107 q 494 51 438 19 q 381 -12 310 -12 q 228 -12 168 28 q 109 68 77 146 q 46 225 46 338 q 46 430 65 503 q 84 576 120 624 q 155 671 206 696 q 257 720 322 720 q 384 720 432 696 q 479 671 504 635 q 528 599 528 566 q 528 546 513 530 q 498 513 474 513 q 454 513 436 526 q 418 539 410 562 q 399 591 375 609 q 350 627 318 627 q 292 627 266 612 q 241 597 223 572 q 188 520 181 387 z m 313 84 q 362 84 395 124 q 427 165 427 230 q 427 274 412 306 q 396 338 370 355 q 344 372 312 372 q 282 372 254 356 q 227 340 210 309 q 193 279 193 238 q 193 172 227 128 q 261 84 313 84 z"},"r":{"x_min":0,"x_max":438,"ha":438,"o":"m 201 180 l 201 69 q 201 28 182 8 q 163 -12 134 -12 q 105 -12 86 8 q 68 29 68 69 l 68 440 q 68 530 133 530 q 166 530 181 509 q 195 488 197 447 q 221 488 246 509 q 271 530 313 530 q 355 530 395 509 q 434 488 434 453 q 434 429 417 413 q 400 397 381 397 q 374 397 345 406 q 317 415 296 415 q 267 415 248 400 q 229 384 219 354 q 209 324 205 282 q 201 240 201 180 z"},"2":{"x_min":0,"x_max":594,"ha":594,"o":"m 223 115 l 478 115 q 516 115 536 100 q 556 84 556 57 q 556 33 540 17 q 524 0 492 0 l 133 0 q 96 0 76 20 q 55 41 55 68 q 55 85 68 115 q 82 144 97 160 q 162 228 214 276 q 267 324 289 339 q 329 367 356 396 q 382 424 396 454 q 410 484 410 513 q 410 544 395 569 q 380 594 355 607 q 329 621 299 621 q 235 621 198 565 q 193 558 182 525 q 170 492 156 475 q 142 457 114 457 q 89 457 73 473 q 57 489 57 517 q 57 551 72 587 q 87 624 117 654 q 147 684 194 702 q 240 720 302 720 q 376 720 429 697 q 463 681 489 654 q 515 626 530 591 q 544 555 544 516 q 544 456 514 406 q 484 356 453 328 q 421 300 348 240 q 274 180 247 147 q 235 134 223 115 z"},"{":{"x_min":0,"x_max":385,"ha":385,"o":"m 172 259 q 207 237 226 211 q 246 184 253 143 q 261 102 261 37 q 261 -11 263 -34 q 266 -57 272 -69 q 279 -81 288 -85 q 297 -88 320 -92 q 338 -94 351 -110 q 363 -125 363 -151 q 363 -210 291 -210 q 247 -210 212 -191 q 177 -173 158 -139 q 139 -105 138 -61 q 137 13 135 58 q 134 103 131 116 q 124 149 109 166 q 95 182 72 197 q 48 211 39 222 q 29 234 29 259 q 29 295 57 313 q 92 335 107 350 q 122 366 128 390 q 134 414 135 443 q 136 471 138 580 q 140 647 181 688 q 222 728 291 728 q 363 728 363 670 q 363 644 351 628 q 339 613 320 611 q 292 607 280 599 q 269 591 266 569 q 262 546 261 482 q 260 419 254 379 q 247 338 228 310 q 208 282 172 259 z"},"9":{"x_min":0,"x_max":594,"ha":594,"o":"m 407 321 q 375 283 335 263 q 295 244 247 244 q 201 244 161 262 q 122 280 93 312 q 63 344 48 386 q 32 429 32 476 q 32 526 50 572 q 67 617 100 650 q 133 683 178 702 q 223 720 278 720 q 341 720 390 697 q 439 674 473 631 q 507 587 525 521 q 543 454 543 370 q 543 276 524 205 q 505 133 469 85 q 432 36 381 12 q 331 -11 266 -11 q 203 -11 156 13 q 109 37 84 73 q 60 109 60 142 q 60 163 75 179 q 90 195 114 195 q 135 195 152 183 q 169 171 178 147 q 189 118 214 100 q 239 82 270 82 q 298 82 323 96 q 348 110 365 136 q 400 188 407 321 z m 396 470 q 396 503 387 531 q 378 560 362 580 q 345 601 323 612 q 300 624 273 624 q 227 624 194 584 q 162 544 162 479 q 162 414 194 375 q 227 337 276 337 q 306 337 334 353 q 361 369 379 399 q 396 429 396 470 z"}," ":{"x_min":0,"x_max":250,"ha":250,"o":""},"I":{"x_min":0,"x_max":313,"ha":313,"o":"m 84 76 l 84 640 q 84 684 104 706 q 124 728 156 728 q 188 728 209 706 q 229 685 229 640 l 229 76 q 229 32 209 10 q 188 -12 156 -12 q 125 -12 104 10 q 84 32 84 76 z"},"H":{"x_min":0,"x_max":760,"ha":760,"o":"m 224 640 l 224 435 l 537 435 l 537 640 q 537 684 557 706 q 577 728 609 728 q 642 728 662 706 q 682 685 682 640 l 682 76 q 682 32 662 10 q 641 -12 609 -12 q 576 -12 557 10 q 537 32 537 76 l 537 317 l 224 317 l 224 76 q 224 32 204 10 q 183 -12 151 -12 q 118 -12 99 10 q 79 32 79 76 l 79 640 q 79 684 98 706 q 118 728 151 728 q 184 728 204 706 q 224 685 224 640 z"},"4":{"x_min":0,"x_max":594,"ha":594,"o":"m 350 62 l 350 153 l 105 153 q 59 153 35 174 q 12 195 12 231 q 12 240 16 250 q 19 259 26 270 q 33 280 40 290 q 47 300 58 314 l 317 660 q 342 694 359 710 q 375 725 398 725 q 472 725 472 640 l 472 262 l 493 262 q 531 262 553 252 q 576 242 576 207 q 576 179 558 166 q 539 153 502 153 l 472 153 l 472 62 q 472 24 456 6 q 439 -12 411 -12 q 384 -12 367 7 q 350 25 350 62 z m 140 262 l 350 262 l 350 546 z"},"~":{"x_min":0,"x_max":583,"ha":583,"o":"m 165 321 q 96 321 32 254 l 32 380 q 64 416 100 431 q 135 447 179 447 q 213 447 243 438 q 274 429 306 416 q 338 403 369 392 q 400 381 417 381 q 448 381 483 399 q 519 417 551 451 l 551 320 q 536 305 512 289 q 489 274 464 264 q 439 255 417 255 q 382 255 352 263 q 322 271 283 288 q 245 304 220 312 q 195 321 165 321 z"},"D":{"x_min":0,"x_max":740,"ha":740,"o":"m 168 716 l 357 716 q 431 716 483 702 q 536 688 579 651 q 691 555 691 360 q 691 295 680 242 q 668 189 645 146 q 622 104 585 70 q 556 44 522 28 q 488 13 448 6 q 409 0 360 0 l 171 0 q 131 0 111 12 q 91 24 85 46 q 79 67 79 102 l 79 627 q 79 674 100 695 q 121 716 168 716 z m 224 601 l 224 115 l 334 115 q 370 115 391 117 q 411 119 433 127 q 455 135 471 149 q 544 210 544 361 q 544 467 512 520 q 480 572 433 587 q 386 601 320 601 z"},"^":{"x_min":0,"x_max":583,"ha":583,"o":"m 196 338 l 56 338 l 240 728 l 348 728 l 527 338 l 389 338 l 292 577 z"},"0":{"x_min":0,"x_max":594,"ha":594,"o":"m 547 351 q 547 271 537 213 q 527 156 501 109 q 468 51 415 20 q 362 -11 298 -11 q 224 -11 165 31 q 106 73 76 147 q 61 188 54 237 q 47 286 47 343 q 47 417 55 476 q 62 535 79 577 q 108 647 163 684 q 218 721 294 721 q 344 721 385 705 q 426 688 457 657 q 488 625 510 579 q 547 499 547 351 z m 413 361 q 413 450 402 507 q 392 564 366 593 q 341 622 296 622 q 231 622 206 557 q 181 492 181 357 q 181 265 192 207 q 203 148 228 118 q 253 88 297 88 q 342 88 367 119 q 393 150 403 208 q 413 267 413 361 z"},"F":{"x_min":0,"x_max":604,"ha":604,"o":"m 506 604 l 220 604 l 220 421 l 459 421 q 492 421 509 406 q 525 391 525 366 q 525 341 508 327 q 492 312 459 312 l 220 312 l 220 76 q 220 31 200 10 q 180 -12 148 -12 q 116 -12 95 10 q 75 32 75 76 l 75 627 q 75 658 84 678 q 94 698 114 707 q 133 716 164 716 l 506 716 q 541 716 557 700 q 574 685 574 660 q 574 635 557 619 q 541 604 506 604 z"},"`":{"x_min":0,"x_max":333,"ha":333,"o":"m 207 666 l 229 625 q 242 604 242 596 q 242 584 221 584 q 189 584 161 598 q 147 605 94 656 q 40 708 40 714 q 40 721 65 721 l 131 721 q 160 721 174 711 q 189 701 207 666 z"},"k":{"x_min":0,"x_max":573,"ha":573,"o":"m 401 49 l 283 242 l 211 174 l 211 68 q 211 29 191 9 q 170 -12 144 -12 q 113 -12 96 8 q 78 29 78 69 l 78 637 q 78 682 95 705 q 112 728 144 728 q 175 728 193 707 q 211 686 211 645 l 211 322 l 361 479 q 389 508 403 519 q 418 530 439 530 q 464 530 480 514 q 497 498 497 474 q 497 445 443 396 l 372 331 l 509 116 q 524 92 531 80 q 537 67 537 56 q 537 24 520 6 q 502 -12 474 -12 q 450 -12 437 1 q 423 14 401 49 z"},"u":{"x_min":0,"x_max":604,"ha":604,"o":"m 415 63 l 415 80 q 391 50 365 29 q 338 9 307 -1 q 276 -11 236 -11 q 188 -11 149 9 q 111 29 90 64 q 65 106 65 186 l 65 450 q 65 490 83 510 q 101 530 131 530 q 161 530 180 510 q 198 490 198 450 l 198 237 q 198 190 206 159 q 214 127 234 110 q 254 92 289 92 q 323 92 353 112 q 382 132 396 164 q 407 192 407 288 l 407 450 q 407 490 426 510 q 444 530 474 530 q 504 530 522 510 q 540 490 540 450 l 540 64 q 540 26 523 7 q 505 -12 478 -12 q 451 -12 433 8 q 415 27 415 63 z"},"]":{"x_min":0,"x_max":354,"ha":354,"o":"m 156 -84 l 156 624 l 75 624 q 44 624 28 638 q 11 653 11 676 q 11 699 28 714 q 44 728 75 728 l 196 728 q 241 728 261 707 q 282 685 282 639 l 282 -99 q 282 -145 262 -166 q 241 -188 196 -188 l 75 -188 q 44 -188 28 -174 q 11 -159 11 -136 q 11 -113 28 -98 q 44 -84 75 -84 z"},"U":{"x_min":0,"x_max":760,"ha":760,"o":"m 79 296 l 79 640 q 79 684 99 706 q 119 728 151 728 q 185 728 204 706 q 224 684 224 640 l 224 288 q 224 228 238 188 q 251 147 285 125 q 319 103 381 103 q 466 103 501 148 q 536 193 536 285 l 536 640 q 536 685 556 706 q 575 728 608 728 q 641 728 661 706 q 681 685 681 640 l 681 296 q 681 212 665 156 q 648 100 603 57 q 564 21 512 4 q 460 -12 391 -12 q 309 -12 249 6 q 189 23 152 61 q 114 98 97 156 q 79 215 79 296 z"},"o":{"x_min":0,"x_max":604,"ha":604,"o":"m 568 259 q 568 199 549 149 q 531 99 496 62 q 460 26 412 7 q 363 -12 302 -12 q 241 -12 193 7 q 145 27 109 63 q 74 100 55 149 q 37 199 37 259 q 37 319 56 370 q 74 420 109 456 q 144 491 193 510 q 242 530 302 530 q 362 530 412 510 q 461 491 496 455 q 531 418 550 369 q 568 319 568 259 z m 434 259 q 434 340 398 386 q 362 431 302 431 q 263 431 233 411 q 203 391 187 351 q 171 312 171 259 q 171 207 187 167 q 203 128 232 108 q 262 87 302 87 q 362 87 398 133 q 434 178 434 259 z"},"N":{"x_min":0,"x_max":760,"ha":760,"o":"m 267 641 l 546 219 l 546 645 q 546 687 564 707 q 582 728 612 728 q 643 728 661 707 q 679 687 679 645 l 679 82 q 679 -12 601 -12 q 582 -12 566 -7 q 550 -1 537 11 q 523 23 511 40 q 500 56 488 73 l 216 490 l 216 71 q 216 30 197 9 q 178 -12 148 -12 q 117 -12 99 9 q 80 30 80 71 l 80 623 q 80 658 88 678 q 97 700 119 714 q 140 728 165 728 q 185 728 198 722 q 212 715 223 705 q 233 694 244 677 q 255 660 267 641 z"},"+":{"x_min":0,"x_max":583,"ha":583,"o":"m 354 103 l 228 103 l 228 289 l 41 289 l 41 417 l 228 417 l 228 604 l 354 604 l 354 417 l 542 417 l 542 289 l 354 289 z"},"G":{"x_min":0,"x_max":792,"ha":792,"o":"m 732 291 l 732 154 q 732 126 727 110 q 721 94 707 81 q 692 67 670 55 q 605 20 545 4 q 485 -12 414 -12 q 332 -12 264 13 q 196 39 148 87 q 100 135 74 204 q 49 273 49 358 q 49 441 74 511 q 99 580 147 628 q 195 677 265 702 q 334 728 422 728 q 494 728 550 709 q 605 689 640 660 q 675 631 692 598 q 710 565 710 540 q 710 513 690 493 q 669 474 641 474 q 625 474 611 481 q 597 489 587 502 q 560 544 542 565 q 523 587 491 602 q 460 616 411 616 q 361 616 321 599 q 282 582 254 549 q 226 516 211 468 q 196 420 196 362 q 196 236 254 168 q 312 100 415 100 q 465 100 510 113 q 554 126 599 151 l 599 267 l 487 267 q 446 267 426 279 q 405 292 405 321 q 405 345 422 360 q 439 376 469 376 l 634 376 q 664 376 685 371 q 706 365 719 347 q 732 328 732 291 z"},"q":{"x_min":0,"x_max":625,"ha":625,"o":"m 434 -121 l 434 67 q 396 28 354 8 q 312 -12 261 -12 q 199 -12 148 21 q 97 53 68 115 q 39 176 39 259 q 39 344 68 405 q 98 465 150 497 q 202 529 265 529 q 319 529 361 507 q 404 484 434 439 l 434 455 q 434 492 452 511 q 469 530 497 530 q 525 530 542 511 q 560 492 560 455 l 560 -121 q 560 -210 497 -210 q 458 -210 446 -186 q 434 -162 434 -121 z m 173 260 q 173 206 190 167 q 208 128 236 110 q 264 91 297 91 q 333 91 362 110 q 392 128 410 167 q 428 206 428 262 q 428 302 418 334 q 407 367 389 388 q 371 409 348 420 q 324 430 298 430 q 244 430 208 386 q 173 341 173 260 z"},"d":{"x_min":0,"x_max":625,"ha":625,"o":"m 434 64 l 434 77 q 407 46 381 27 q 355 8 324 -2 q 294 -12 258 -12 q 210 -12 169 8 q 128 28 99 66 q 69 104 53 154 q 38 205 38 264 q 38 389 99 459 q 160 529 260 529 q 317 529 357 509 q 396 489 434 448 l 434 645 q 434 686 450 707 q 467 728 497 728 q 527 728 544 709 q 560 689 560 652 l 560 64 q 560 26 542 7 q 525 -12 497 -12 q 470 -12 452 8 q 434 27 434 64 z m 172 260 q 172 206 189 167 q 206 129 235 110 q 264 91 299 91 q 334 91 363 109 q 392 127 409 165 q 427 203 427 260 q 427 313 409 351 q 392 390 363 410 q 333 430 298 430 q 261 430 232 409 q 204 389 188 350 q 172 311 172 260 z"},"1":{"x_min":0,"x_max":594,"ha":594,"o":"m 282 67 l 282 511 q 158 416 115 416 q 95 416 79 432 q 63 449 63 470 q 63 495 79 507 q 94 519 134 537 q 193 565 228 596 q 264 626 291 665 q 318 703 327 711 q 335 720 358 720 q 384 720 399 700 q 415 680 415 645 l 415 86 q 415 -12 348 -12 q 318 -12 300 8 q 282 28 282 67 z"},"5":{"x_min":0,"x_max":594,"ha":594,"o":"m 463 595 l 231 595 l 203 437 q 272 474 331 474 q 378 474 419 457 q 459 439 490 408 q 521 377 539 334 q 556 292 556 243 q 556 172 524 114 q 493 56 433 22 q 373 -12 295 -12 q 208 -12 153 20 q 99 52 76 94 q 53 136 53 167 q 53 186 69 203 q 85 220 109 220 q 150 220 170 173 q 189 129 223 105 q 256 81 297 81 q 334 81 363 101 q 391 120 406 154 q 422 188 422 232 q 422 279 405 312 q 389 345 361 362 q 333 378 299 378 q 257 378 239 368 q 221 357 187 332 q 153 306 131 306 q 107 306 88 323 q 70 341 70 363 q 70 365 75 396 l 116 630 q 123 672 142 691 q 160 710 202 710 l 460 710 q 536 710 536 652 q 536 626 518 611 q 499 595 463 595 z"}}}
